<?xml version="1.0" standalone="no"?>
<!DOCTYPE svg PUBLIC "-//W3C//DTD SVG 1.1//EN" "http://www.w3.org/Graphics/SVG/1.1/DTD/svg11.dtd" >
<svg xmlns="http://www.w3.org/2000/svg">
<metadata>Generated by IcoMoon</metadata>
<defs>
<font id="icons" horiz-adv-x="1024">
<font-face units-per-em="1024" ascent="960" descent="-64" />
<missing-glyph horiz-adv-x="1024" />
<glyph unicode="&#x20;" horiz-adv-x="512" d="" />
<glyph unicode="&#xe900;" glyph-name="android" d="M299.368 889.752c8.331 8.331 21.839 8.331 30.17 0l47.177-47.177c35.384 20.413 76.441 32.092 120.226 32.092h30.118c43.821 0 84.908-11.698 120.314-32.142l47.224 47.227c8.331 8.331 21.841 8.331 30.172 0s8.331-21.839 0-30.17l-41.99-41.99c52.134-44.196 85.221-110.167 85.221-183.866 0-8.317-6.74-15.059-15.059-15.059h-481.882c-8.317 0-15.059 6.742-15.059 15.059 0 73.734 33.12 139.732 85.296 183.928l-41.928 41.928c-8.331 8.331-8.331 21.839 0 30.17zM448 736c0-17.673-14.327-32-32-32s-32 14.327-32 32c0 17.673 14.327 32 32 32s32-14.327 32-32zM606.877 704c17.673 0 32.003 14.327 32.003 32s-14.33 32-32.003 32c-17.672 0-31.999-14.327-31.999-32s14.327-32 31.999-32zM170.666 578.246c-23.564 0-42.666-19.102-42.666-42.666v-255.998c0-23.564 19.102-42.671 42.666-42.671s42.667 19.107 42.667 42.671v255.998c0 23.564-19.103 42.666-42.667 42.666zM298.666 578.246c-23.564 0-42.666-19.102-42.666-42.666v-383.998c0-23.564 19.102-42.671 42.666-42.671h426.669c23.564 0 42.665 19.107 42.665 42.671v383.998c0 23.564-19.101 42.666-42.665 42.666h-426.669zM819.646 535.58c0 23.564 19.107 42.666 42.671 42.666s42.665-19.102 42.665-42.666v-255.998c0-23.564-19.101-42.671-42.665-42.671s-42.671 19.107-42.671 42.671v255.998zM332.522 64c-6.916 0-12.522-5.608-12.522-12.523v-8.812c0-41.237 33.429-74.662 74.666-74.662s74.667 33.425 74.667 74.662v8.812c0 6.915-5.606 12.523-12.522 12.523h-124.29zM554.666 51.477c0 6.915 5.606 12.523 12.522 12.523h124.289c6.915 0 12.523-5.608 12.523-12.523v-8.812c0-41.237-33.431-74.662-74.668-74.662s-74.666 33.425-74.666 74.662v8.812z" />
<glyph unicode="&#xe901;" glyph-name="apple" d="M499.328 720.399c1.243 38.589 11.873 95.435 48.865 132.78 34.338 34.666 76.14 51.561 102.174 59.285 10.053 2.982 19.697-4.598 19.203-15.070-1.747-36.94-11.457-92.040-36.521-121.558-23.624-27.826-61.63-64.724-117.297-70.932-9.112-1.016-16.72 6.332-16.424 15.495zM594.646 14.101c26.729-10.24 53.756-20.594 78.218-20.594 52.326 0 204.692 120.73 210.179 246.115 0.283 6.439-3.56 12.192-9.186 15.342-38.755 21.685-102.045 75.686-104.249 154.251-2.572 91.557 43.4 164.277 78.191 194.358 7.831 6.77 10.517 18.707 3.53 26.341-31.654 34.568-95.334 82.119-153.437 80.951-42.273-0.849-80.36-16.595-113.042-30.107-25.074-10.366-46.967-19.417-65.129-19.417-17.202 0-37.853 8.993-61.555 19.315-31.92 13.9-69.372 30.21-111.385 30.21-77.822 0-231.583-64.532-231.583-313.657-0.001-132.065 136.335-407.201 251.379-403.702 24.842 0 51.391 10.288 77.735 20.492 25.942 10.053 51.686 20.028 75.408 20.028 22.904 0 48.773-9.909 74.925-19.926z" />
<glyph unicode="&#xe902;" glyph-name="calendar" d="M330.666 789.333c0 17.673-14.328 32-32.001 32s-32-14.327-32-32v-77.501c-63.704-9.006-114.032-59.393-122.551-123.666l-3.693-27.859c-0.626-4.724-1.225-9.447-1.796-14.177-1.515-12.542 8.366-23.463 21-23.463h704.744c12.635 0 22.518 10.92 21.002 23.463-0.571 4.73-1.169 9.454-1.797 14.177l-3.693 27.859c-8.519 64.273-58.847 114.659-122.55 123.666v77.501c0 17.673-14.326 32-31.998 32s-32.002-14.327-32.002-32v-71.152c-120.65 10.745-242.014 10.745-362.664 0v71.152zM893.632 438.378c-0.373 11.366-9.764 20.288-21.141 20.288h-720.989c-11.374 0-20.767-8.922-21.141-20.288-2.534-77.127 2.151-154.413 14.043-230.839 9.003-57.859 56.007-102.298 114.279-108.045l50.901-5.021c134.617-13.276 270.211-13.276 404.824 0l50.903 5.021c58.272 5.748 105.277 50.186 114.278 108.045 11.892 76.427 16.579 153.712 14.042 230.839z" />
<glyph unicode="&#xe903;" glyph-name="check" d="M769.289 619.96c12.499-12.497 12.499-32.758 0-45.255l-298.664-298.665c-12.497-12.499-32.758-12.499-45.255 0l-170.666 170.665c-12.497 12.496-12.497 32.758 0 45.255s32.758 12.496 45.255 0l148.039-148.041 276.037 276.041c12.499 12.496 32.762 12.496 45.255 0z" />
<glyph unicode="&#xe904;" glyph-name="cross" d="M685.472 576.222c12.499 12.497 12.499 32.758 0 45.255-12.493 12.497-32.756 12.497-45.255 0l-128.22-128.222-128.222 128.222c-12.496 12.497-32.758 12.497-45.255 0s-12.496-32.758 0-45.255l128.222-128.222-128.222-128.223c-12.496-12.499-12.496-32.756 0-45.255s32.758-12.499 45.255 0l128.222 128.223 128.22-128.223c12.499-12.499 32.762-12.499 45.255 0 12.499 12.499 12.499 32.756 0 45.255l-128.22 128.223 128.22 128.222z" />
<glyph unicode="&#xe905;" glyph-name="discover" d="M939.645 529.613c36.642 0 56.795-16.533 56.795-47.761 1.832-23.881-14.657-44.087-36.642-47.761l49.465-67.968h-38.474l-42.138 66.131h-3.664v-66.131h-31.144v163.49h45.801zM924.988 454.296h9.162c20.153 0 29.312 9.185 29.312 25.717 0 14.696-9.159 23.881-29.312 23.881h-9.162v-49.598zM785.752 366.123h87.939v27.554h-56.795v44.087h54.963v27.554h-54.963v36.739h56.795v27.555h-87.939v-163.49zM694.144 419.395l-42.138 110.218h-32.978l67.789-167.164h16.486l67.789 167.164h-32.978l-43.969-110.218zM322.236 446.95c0-45.924 36.639-84.5 82.443-84.5 14.655 0 27.48 3.674 40.306 9.185v36.739c-9.162-11.022-21.985-18.37-36.642-18.37-29.315 0-53.131 22.044-53.131 51.435v3.674c-1.832 29.392 21.985 55.109 51.3 56.946 14.655 0 29.312-7.348 38.474-18.37v36.739c-10.994 7.348-25.651 9.185-38.474 9.185-47.636 3.674-84.275-34.902-84.275-82.664v0zM265.439 467.156c-18.321 7.348-23.817 11.022-23.817 20.207 1.832 11.022 10.993 20.207 21.985 18.37 9.161 0 18.321-5.511 25.65-12.859l16.489 22.044c-12.826 11.022-29.315 18.37-45.804 18.37-25.649 1.837-47.634-18.37-49.466-44.087v-1.837c0-22.044 9.16-34.902 38.474-44.087 7.328-1.837 14.657-5.511 21.985-9.185 5.496-3.674 9.16-9.185 9.16-16.533 0-12.859-10.992-23.881-21.985-23.881h-1.832c-14.657 0-27.481 9.185-32.978 22.044l-20.153-20.207c10.993-20.207 32.978-31.228 54.962-31.228 29.315-1.837 53.131 20.206 54.963 49.598v5.511c-1.832 22.044-10.994 33.066-47.634 47.761v0zM159.179 366.123h31.145v163.49h-31.145v-163.49zM14.444 529.613h54.962c43.97-1.837 78.78-38.576 76.948-82.663 0-23.881-10.993-45.924-29.313-62.457-16.489-12.859-36.642-20.207-56.794-18.37h-45.802v163.49zM54.751 393.678c14.657-1.837 31.146 3.674 42.138 12.859 10.993 11.022 16.489 25.717 16.489 42.25 0 14.696-5.496 29.391-16.489 40.413-10.992 9.185-27.481 14.696-42.138 12.859h-9.16v-108.381h9.16zM538.422 533.403c-45.801 0-84.275-36.739-84.275-84.501 0-45.924 36.639-84.5 84.275-86.337 47.633-1.837 84.275 36.739 86.107 84.5-1.832 47.761-38.474 86.337-86.107 86.337v0z" />
<glyph unicode="&#xe907;" glyph-name="dislike" d="M540.291 96.002c19.542 0 37.847 9.556 49.013 25.596l180.56 259.289c33.907 48.689 49.017 108.016 42.537 166.994l-13.885 126.353c-5.931 53.995-48.321 96.764-102.261 103.181l-90.325 10.745c-68.977 8.205-138.916 1.093-204.83-20.831-46.137-15.346-83.091-50.364-100.895-95.609l-72.901-185.263c-3.526-8.958-5.963-18.313-7.259-27.853-11.278-83.079 63.792-151.908 145.582-133.476l166.312 37.474-49.488-191.963c-9.744-37.802 18.801-74.641 57.84-74.637z" />
<glyph unicode="&#xe908;" glyph-name="fire" d="M514.667 871.895c-12.356 5.418-24.529 1.628-32.358-6.346-7.603-7.746-11.409-19.567-8.742-31.487 4.211-18.813 6.434-38.387 6.434-58.492 0-45.903-11.567-78.052-31.475-104.704-20.237-27.093-49.528-49.149-86.513-74.036-0.582-0.391-1.123-0.839-1.616-1.336l-4.48-4.514c-79.353-51.266-131.916-140.531-131.916-242.077 0-159.057 128.942-288 288-288s288 128.943 288 288c0 46.703-11.123 90.837-30.874 129.869-1.609 3.174-4.693 5.338-8.226 5.773-3.533 0.431-7.049-0.93-9.37-3.622-3.008-3.49-5.956-6.933-8.858-10.325-37.474-43.78-67.716-79.117-129.715-94.899-2.637-0.67-4.275-0.171-5.44 0.555-1.365 0.853-2.863 2.56-3.887 5.286-2.138 5.679-1.22 12.924 3.157 17.668 33.161 35.951 56.717 84.753 65.135 154.178 15.765 130.044-43.337 268.565-157.257 318.511z" />
<glyph unicode="&#xe909;" glyph-name="gift" d="M225.774 771.556c0 89.347 72.431 161.777 161.778 161.777 50.037 0 94.769-22.717 124.444-58.4 29.676 35.683 74.407 58.4 124.444 58.4 89.347 0 161.778-72.43 161.778-161.777 0-37.546-12.791-72.104-34.251-99.556h46.695c68.729 0 124.444-55.716 124.444-124.444v-62.223c0-20.618-16.714-37.333-37.333-37.333h-333.511c-8.247 0-14.933 6.686-14.933 14.933v172.276c-14.084 9.017-26.679 20.157-37.333 32.969-10.654-12.811-23.249-23.951-37.333-32.969v-172.276c0-8.247-6.686-14.933-14.933-14.933h-333.511c-20.619 0-37.333 16.715-37.333 37.333v62.223c0 68.728 55.716 124.444 124.445 124.444h46.695c-21.46 27.452-34.251 62.010-34.251 99.556zM474.663 771.556c0 48.11-39.001 87.111-87.111 87.111s-87.112-39.001-87.112-87.111c0-48.11 39.002-87.112 87.112-87.112s87.111 39.002 87.111 87.112zM549.33 771.556c0-48.11 39.001-87.112 87.111-87.112s87.112 39.002 87.112 87.112c0 48.11-39.002 87.111-87.112 87.111s-87.111-39.001-87.111-87.111zM474.663 365.867c0 8.247-6.686 14.933-14.933 14.933h-263.871c-20.192 0-37.448-14.55-40.858-34.452-11.053-64.503-11.053-130.416 0-194.918l11.166-65.157c7.518-43.878 43.152-77.491 87.39-82.432l53.020-5.922c50.819-5.683 101.814-9.25 152.853-10.701 8.363-0.239 15.234 6.502 15.234 14.865v363.785zM564.564-12.783c-8.363-0.239-15.234 6.502-15.234 14.865v363.785c0 8.247 6.686 14.933 14.933 14.933h263.871c20.192 0 37.448-14.55 40.858-34.452 11.053-64.503 11.053-130.416 0-194.918l-11.166-65.157c-7.518-43.878-43.151-77.491-87.39-82.432l-53.019-5.922c-50.819-5.683-101.814-9.25-152.853-10.701z" />
<glyph unicode="&#xe90a;" glyph-name="like" d="M483.709 800c-19.542 0-37.847-9.56-49.013-25.596l-180.56-259.291c-33.906-48.689-49.018-108.016-42.537-166.994l13.885-126.353c5.933-53.993 48.321-96.764 102.261-103.182l90.327-10.744c68.977-8.204 138.916-1.094 204.829 20.832 46.137 15.344 83.091 50.364 100.897 95.609l72.901 185.262c3.527 8.958 5.964 18.313 7.258 27.853 11.276 83.079-63.791 151.907-145.58 133.477l-166.314-37.475 49.488 191.964c9.744 37.803-18.801 74.64-57.84 74.639z" />
<glyph unicode="&#xe90b;" glyph-name="location" d="M373.334 533.332c0 76.585 62.084 138.668 138.666 138.668s138.666-62.082 138.666-138.668c0-76.582-62.084-138.666-138.666-138.666s-138.666 62.084-138.666 138.666zM161.005 581.232c14.662 177.874 163.304 314.768 341.783 314.768h18.429c178.477 0 327.118-136.894 341.781-314.768 7.895-95.77-21.689-190.867-82.518-265.256l-204.503-250.104c-33.065-40.438-94.885-40.438-127.95 0l-204.505 250.104c-60.828 74.389-90.411 169.485-82.517 265.256zM512 736c-111.93 0-202.667-90.737-202.667-202.668s90.737-202.666 202.667-202.666c111.93 0 202.666 90.736 202.666 202.666s-90.736 202.668-202.666 202.668z" />
<glyph unicode="&#xe90c;" glyph-name="maestro" d="M646.257 288.607h-270.124v470.355h270.124v-470.355zM393.285 523.775c0 95.414 46.106 180.405 117.906 235.177-52.506 40.052-118.769 63.958-190.786 63.958-170.49 0-308.692-133.925-308.692-299.135s138.202-299.135 308.692-299.135c72.016 0 138.28 23.907 190.786 63.956-71.801 54.773-117.906 139.765-117.906 235.179zM1010.684 523.775c0-165.211-138.203-299.135-308.692-299.135-72.016 0-138.28 23.907-190.804 63.956 71.819 54.773 117.925 139.765 117.925 235.179s-46.106 180.405-117.925 235.177c52.524 40.052 118.788 63.958 190.804 63.958 170.489 0 308.692-133.925 308.692-299.135zM737.649 155.699c3.595 0 8.755-0.666 12.701-2.169l-5.497-16.278c-3.767 1.503-7.537 1.997-11.147 1.997-11.659 0-17.488-7.303-17.488-20.425v-44.54h-17.843v79.419h17.664v-9.64c4.634 6.978 11.326 11.637 21.61 11.637v0zM671.744 137.918h-29.151v-35.888c0-7.969 2.907-13.294 11.838-13.294 4.63 0 10.459 1.503 15.762 4.487l5.142-14.775c-5.654-3.825-14.566-6.162-22.279-6.162-21.102 0-28.46 10.971-28.46 29.418v36.213h-16.644v15.784h16.644v24.097h17.997v-24.097h29.151v-15.784zM465.609 155.699c22.985 0 38.766-16.944 38.945-41.706 0-2.304-0.176-4.436-0.351-6.587l-0.004-0.051h-60.866c2.571-14.281 13.030-19.438 24.514-19.438 8.225 0 16.98 2.988 23.83 8.313l8.755-12.8c-9.955-8.141-21.259-11.125-33.605-11.125-24.536 0-42.024 16.45-42.024 41.688 0 24.763 16.801 41.706 40.806 41.706zM465.276 140.255c-12.701 0-19.884-7.815-21.789-19.284h42.536c-1.883 12.306-9.264 19.284-20.747 19.284zM582.905 133.427c-4.966 3.006-15.075 6.828-25.538 6.828-9.776 0-15.605-3.5-15.605-9.318 0-5.307 6.166-6.806 13.879-7.797l8.4-1.159c17.843-2.512 28.635-9.812 28.635-23.771 0-15.122-13.718-25.922-37.369-25.922-13.389 0-25.735 3.328-35.507 10.306l8.4 13.466c6.005-4.487 14.936-8.313 27.282-8.313 12.167 0 18.684 3.482 18.684 9.644 0 4.469-4.63 6.978-14.405 8.291l-8.4 1.159c-18.352 2.512-28.303 10.481-28.303 23.431 0 15.784 13.385 25.428 34.132 25.428 13.034 0 24.869-2.834 33.426-8.313l-7.713-13.959zM820.502 152.485c-5.416 2.15-11.304 3.215-17.664 3.215s-12.248-1.064-17.668-3.215c-5.416-2.128-10.068-5.076-13.992-8.825-3.928-3.745-7.007-8.177-9.245-13.275-2.238-5.113-3.357-10.668-3.357-16.658s1.119-11.546 3.357-16.658c2.238-5.098 5.317-9.549 9.245-13.294 3.924-3.749 8.576-6.678 13.992-8.825 5.42-2.132 11.308-3.196 17.668-3.196s12.248 1.064 17.664 3.196c5.42 2.147 10.108 5.076 14.054 8.825 3.964 3.745 7.047 8.196 9.285 13.294 2.235 5.113 3.354 10.668 3.354 16.658s-1.119 11.546-3.354 16.658c-2.238 5.098-5.321 9.531-9.285 13.275-3.946 3.749-8.635 6.696-14.054 8.825zM792.609 137.424c3.16 1.236 6.557 1.861 10.225 1.861 3.672 0 7.088-0.625 10.229-1.861 3.16-1.258 5.906-3.006 8.203-5.252 2.337-2.242 4.14-4.944 5.475-8.082 1.317-3.138 1.964-6.597 1.964-10.364 0-3.785-0.647-7.227-1.964-10.364-1.335-3.138-3.138-5.84-5.475-8.082-2.297-2.245-5.043-3.994-8.203-5.248-3.141-1.258-6.557-1.865-10.229-1.865-3.668 0-7.066 0.607-10.225 1.865-3.141 1.254-5.87 3.003-8.166 5.248-2.297 2.242-4.1 4.944-5.416 8.082-1.313 3.138-1.964 6.579-1.964 10.364 0 3.767 0.651 7.227 1.964 10.364 1.317 3.138 3.12 5.84 5.416 8.082 2.297 2.245 5.025 3.994 8.166 5.252zM405.665 153.702v-79.419h-17.825v9.64c-5.672-7.15-14.23-11.637-25.888-11.637-22.984 0-40.983 17.456-40.983 41.706 0 24.265 17.999 41.706 40.983 41.706 11.658 0 20.216-4.487 25.888-11.641v9.644h17.825zM364.17 139.421c-15.428 0-24.869-11.469-24.869-25.428s9.441-25.41 24.869-25.41c14.74 0 24.691 10.957 24.691 25.41s-9.951 25.428-24.691 25.428zM305.191 74.284v49.847c0 18.772-12.346 31.4-32.229 31.568-10.462 0.172-21.277-2.984-28.814-14.128-5.653 8.803-14.584 14.128-27.106 14.128-8.735 0-17.312-2.491-24.005-11.791v9.794h-17.822v-79.419h17.999v44.028c0 13.787 7.89 21.109 20.060 21.109 11.836 0 17.842-7.475 17.842-20.941v-44.197h17.999v44.028c0 13.787 8.244 21.109 20.060 21.109 12.189 0 18.018-7.475 18.018-20.941v-44.197h17.999z" />
<glyph unicode="&#xe916;" glyph-name="masterrcard" d="M294.423 152.433v-79.565h-17.855v9.659c-5.663-7.164-14.257-11.659-25.937-11.659-23.026 0-41.078 17.47-41.078 41.783 0 24.291 18.052 41.783 41.078 41.783 11.681 0 20.274-4.498 25.937-11.663v9.662h17.855zM252.853 138.123c-15.456 0-24.914-11.487-24.914-25.472s9.458-25.476 24.914-25.476c14.768 0 24.737 10.993 24.737 25.476 0 14.479-9.97 25.472-24.737 25.472zM897.796 112.651c0-13.985 9.457-25.476 24.912-25.476 14.789 0 24.741 10.993 24.741 25.476 0 14.479-9.951 25.472-24.741 25.472-15.455 0-24.912-11.487-24.912-25.472zM964.301 184.382v-111.514h-17.876v9.659c-5.665-7.164-14.256-11.659-25.936-11.659-23.029 0-41.081 17.47-41.081 41.783 0 24.291 18.052 41.783 41.081 41.783 11.681 0 20.272-4.498 25.936-11.663v41.611h17.876zM516.056 138.942c-12.723 0-19.917-7.812-21.826-19.299h42.613c-1.891 12.306-9.282 19.299-20.787 19.299zM475.509 112.651c0 24.806 16.834 41.783 40.901 41.783 23.007 0 38.817-16.976 38.992-41.783 0-2.326-0.176-4.498-0.351-6.652h-60.979c2.575-14.325 13.056-19.489 24.561-19.489 8.24 0 17.009 3.010 23.892 8.327l8.748-12.826c-9.969-8.152-21.296-11.143-33.664-11.143-24.58 0-42.101 16.479-42.101 41.783zM732.006 112.651c0-13.985 9.461-25.476 24.916-25.476 14.768 0 24.737 10.993 24.737 25.476 0 14.479-9.969 25.472-24.737 25.472-15.455 0-24.916-11.487-24.916-25.472zM798.493 152.433v-79.565h-17.858v9.659c-5.68-7.164-14.256-11.659-25.936-11.659-23.025 0-41.077 17.47-41.077 41.783 0 24.291 18.052 41.783 41.077 41.783 11.681 0 20.257-4.498 25.936-11.663v9.662h17.858zM631.168 112.651c0-24.141 17.346-41.783 43.813-41.783 12.368 0 20.608 2.666 29.535 9.487l-8.572 13.985c-6.707-4.667-13.747-7.164-21.493-7.164-14.256 0.172-24.737 10.156-24.737 25.476 0 15.316 10.481 25.3 24.737 25.472 7.746 0 14.786-2.494 21.493-7.164l8.572 13.985c-8.927 6.821-17.167 9.49-29.535 9.49-26.467 0-43.813-17.646-43.813-41.783zM839.724 142.771c4.641 6.992 11.348 11.663 21.65 11.663 3.617 0 8.77-0.669 12.723-2.172l-5.508-16.311c-3.774 1.507-7.548 2-11.169 2-11.681 0-17.518-7.314-17.518-20.48v-44.603h-17.876v79.565h17.697v-9.662zM382.735 146.107c-8.594 5.486-20.432 8.327-33.489 8.327-20.805 0-34.196-9.662-34.196-25.476 0-12.976 9.969-20.977 28.336-23.472l8.436-1.163c9.793-1.335 14.412-3.829 14.412-8.327 0-6.151-6.527-9.659-18.719-9.659-12.369 0-21.296 3.829-27.313 8.327l-8.416-13.473c9.793-6.992 22.161-10.324 35.553-10.324 23.716 0 37.459 10.821 37.459 25.969 0 13.985-10.814 21.299-28.689 23.797l-8.416 1.181c-7.728 0.987-13.922 2.476-13.922 7.812 0 5.829 5.84 9.315 15.633 9.315 10.481 0 20.627-3.829 25.601-6.821l7.731 13.985zM591.488 142.771c4.623 6.992 11.326 11.663 21.632 11.663 3.617 0 8.77-0.669 12.723-2.172l-5.508-16.311c-3.774 1.507-7.552 2-11.169 2-11.681 0-17.521-7.314-17.521-20.48v-44.603h-17.854v79.565h17.697v-9.662zM460.738 152.433h-29.199v24.137h-18.052v-24.137h-16.658v-15.813h16.658v-36.297c0-18.461 7.391-29.455 28.511-29.455 7.749 0 16.677 2.322 22.338 6.151l-5.153 14.826c-5.328-2.992-11.169-4.498-15.81-4.498-8.927 0-11.835 5.336-11.835 13.319v35.953h29.199v15.813zM193.762 122.803v-49.935h-18.052v44.277c0 13.491-5.84 20.977-18.032 20.977-11.857 0-20.096-7.336-20.096-21.149v-44.105h-18.052v44.277c0 13.491-5.998 20.977-17.855 20.977-12.212 0-20.116-7.336-20.116-21.149v-44.105h-18.032v79.565h17.875v-9.812c6.705 9.315 15.279 11.813 24.049 11.813 12.546 0 21.473-5.336 27.136-14.157 7.571 11.165 18.386 14.329 28.867 14.157 19.939-0.172 32.308-12.826 32.308-31.631zM647.435 287.631h-270.618v471.215h270.618v-471.215zM393.984 523.228c0 95.588 46.19 180.736 118.122 235.608-52.601 40.125-118.989 64.075-191.135 64.075-170.802 0-309.256-134.171-309.256-299.683s138.455-299.682 309.256-299.682c72.147 0 138.535 23.947 191.135 64.073-71.932 54.872-118.122 140.021-118.122 235.609zM1012.517 523.228c0-165.512-138.452-299.682-309.255-299.682-72.148 0-138.533 23.947-191.155 64.073 71.951 54.872 118.144 140.021 118.144 235.609s-46.193 180.736-118.144 235.608c52.623 40.125 119.007 64.075 191.155 64.075 170.803 0 309.255-134.171 309.255-299.683z" />
<glyph unicode="&#xe91a;" glyph-name="phone" d="M800.008 490.664l-0.264-10.379 0.264-10.957-0.251-10.448 0.248-10.884-8.050-352.137c-1.001-43.824-34.33-80.116-77.91-84.837-134.306-14.544-269.788-14.544-404.094 0-43.58 4.72-76.91 41.013-77.912 84.837l-8.050 352.137 0.25 10.957-0.25 10.375 0.263 10.914-0.265 10.422 7.198 283.369c0.048 1.873 0.138 3.735 0.271 5.586l0.474 19.719c1.085 45.086 35.52 82.335 80.383 86.95 3.733 0.384 7.468 0.757 11.203 1.12 5.066 1.177 10.26 2.036 15.562 2.553 115.008 11.209 230.829 11.209 345.838 0 5.302-0.517 10.494-1.375 15.561-2.552 3.736-0.363 7.472-0.736 11.205-1.12 44.864-4.615 79.301-41.864 80.384-86.95l0.476-19.764c0.132-1.836 0.221-3.684 0.268-5.541l7.198-283.369zM682.664 202.666c17.672 0 32.002 14.326 32.002 32.002 0 17.672-14.329 31.998-32.002 31.998h-341.332c-17.674 0-32.001-14.326-32.001-31.998 0-17.676 14.327-32.002 32.001-32.002h341.332zM511.997 34.129c35.348 0 64 28.655 64 64 0 35.348-28.652 64-64 64-35.345 0-64-28.652-64-64 0-35.345 28.655-64 64-64z" />
<glyph unicode="&#xe91b;" glyph-name="rocket" d="M964.272 870.4c-4.272 12.8-17.072 25.6-29.872 29.867-179.2 46.933-362.663-8.533-486.396-153.6l-46.934-55.466-115.2 25.6c-55.466 21.334-115.2-4.266-140.8-55.466l-93.866-166.4c-8.533-12.8-8.533-25.6 0-38.4 4.267-12.8 17.067-21.334 29.866-25.6l132.267-29.867c-12.8-34.133-17.067-68.266-25.6-102.4 0-12.8 4.266-25.6 12.8-34.133l132.266-132.269c8.534-8.528 17.066-12.8 29.866-12.8h4.267c38.4 4.272 72.533 8.536 106.666 21.336l25.6-128c4.266-12.8 12.8-25.6 25.6-29.864 4.266-4.272 12.8-4.272 17.066-4.272 8.534 0 12.8 0 21.334 4.272l166.4 93.864c46.932 25.6 72.532 85.336 59.732 140.8l-29.864 119.466 51.2 46.934c140.8 119.466 200.528 311.466 153.6 486.4zM311.47 584.534c-25.6-34.134-51.2-68.267-68.266-102.4l-89.6 21.333 64 115.2c8.534 17.067 25.6 21.334 46.934 17.067l72.533-17.067-25.6-34.133zM682.67 153.6l-115.2-64-17.066 85.336c38.4 17.064 72.534 42.664 102.4 68.264l29.866 29.866 17.066-72.531c8.534-21.336-4.266-42.672-17.066-46.936zM712.537 584.534c-34.134 0-64.001 29.866-64.001 64s29.867 64 64.001 64c34.134 0 63.999-29.867 63.999-64s-25.6-64-63.999-64z" />
<glyph unicode="&#xe91c;" glyph-name="server" d="M168.419 746.666c0 35.346 28.654 64 64 64h554.667c35.345 0 64-28.654 64-64v-170.666c0-35.348-28.655-64-64-64h-554.667c-35.346 0-64 28.652-64 64v170.666zM255.999 661.333c0 23.564 19.103 42.667 42.667 42.667s42.667-19.103 42.667-42.667c0-23.564-19.103-42.665-42.667-42.665s-42.667 19.101-42.667 42.665zM426.664 704c-23.562 0-42.664-19.103-42.664-42.667s19.103-42.665 42.664-42.665c23.565 0 42.668 19.101 42.668 42.665s-19.103 42.667-42.668 42.667zM168.419 405.332c0 35.348 28.654 64 64 64h554.667c35.345 0 64-28.652 64-64v-170.664c0-35.348-28.655-64-64-64h-243.088v-74.669h266.666c17.676 0 32.002-14.326 32.002-31.998s-14.326-32.002-32.002-32.002h-597.332c-17.673 0-32 14.329-32 32.002s14.327 31.998 32 31.998h266.666v74.669h-247.579c-35.346 0-64 28.652-64 64v170.664zM255.999 320c0 23.565 19.103 42.668 42.667 42.668s42.667-19.103 42.667-42.668c0-23.565-19.103-42.668-42.667-42.668s-42.667 19.103-42.667 42.668zM384 320c0 23.565 19.103 42.668 42.664 42.668 23.565 0 42.668-19.103 42.668-42.668s-19.103-42.668-42.668-42.668c-23.562 0-42.664 19.103-42.664 42.668z" />
<glyph unicode="&#xe91d;" glyph-name="shield" d="M561.519 771.965c-30.466 18.345-68.575 18.345-99.041 0l-22.029-13.265c-53.449-32.185-113.457-51.935-175.574-57.787l-13.879-1.307c-27.396-2.581-48.33-25.581-48.33-53.098v-70.14c0-118.553 48.132-232.028 133.368-314.427l138.897-134.273c20.672-19.985 53.463-19.985 74.138 0l138.894 134.273c85.236 82.399 133.368 195.875 133.368 314.427v70.14c0 27.517-20.933 50.517-48.329 53.098l-13.88 1.307c-62.117 5.852-122.12 25.602-175.573 57.787l-22.029 13.265z" />
<glyph unicode="&#xe91e;" glyph-name="star" d="M938.665 529.067c4.265 21.333-12.8 46.933-34.135 46.933l-243.2 34.134-110.932 221.866c-4.266 8.534-8.534 12.8-17.066 17.067-21.334 12.8-46.934 4.266-59.734-17.067l-106.666-221.866-243.2-34.134c-12.8 0-21.334-4.266-25.6-12.8-17.067-17.066-17.067-42.666 0-59.733l174.933-170.667-42.666-243.2c0-8.535 0-17.065 4.266-25.6 12.8-21.335 38.4-29.865 59.734-17.065l217.6 115.2 217.602-115.2c4.265-4.271 12.8-4.271 21.329-4.271 4.271 0 4.271 0 8.535 0 21.335 4.271 38.4 25.6 34.135 51.2l-42.671 243.2 174.935 170.669c8.535 4.266 12.8 12.8 12.8 21.334z" />
<glyph unicode="&#xe91f;" glyph-name="union" d="M224.551 747.312h238.352c33.272 0 53.965-27.23 46.202-60.747l-110.97-478.374c-7.83-33.398-41.142-60.652-74.437-60.652h-238.328c-33.225 0-53.965 27.254-46.204 60.652l111.016 478.374c7.762 33.517 41.056 60.747 74.369 60.747zM443.057 747.346h274.097c33.264 0 18.263-27.23 10.437-60.747l-110.95-478.372c-7.786-33.402-5.356-60.652-38.691-60.652h-274.098c-33.336 0-53.966 27.25-46.134 60.652l110.946 478.372c7.878 33.518 41.102 60.747 74.394 60.747zM706.284 747.346h238.352c33.319 0 54.012-27.23 46.186-60.747l-110.95-478.372c-7.834-33.402-41.169-60.652-74.48-60.652h-238.241c-33.335 0-54.012 27.25-46.202 60.652l110.966 478.372c7.763 33.518 41.035 60.747 74.37 60.747zM286.787 594.044c-24.511-0.251-31.75 0-34.062 0.548-0.889-4.241-17.429-80.849-17.475-80.913-3.562-15.499-6.153-26.547-14.954-33.681-4.996-4.148-10.829-6.148-17.592-6.148-10.87 0-17.202 5.419-18.265 15.698l-0.204 3.529c0 0 3.312 20.76 3.312 20.877 0 0 17.359 69.812 20.467 79.041 0.163 0.525 0.209 0.799 0.25 1.050-33.788-0.298-39.778 0-40.191 0.548-0.226-0.753-1.063-5.081-1.063-5.081l-17.725-78.685-1.522-6.673-2.946-21.828c0-6.475 1.267-11.76 3.788-16.228 8.075-14.169 31.11-16.292 44.141-16.292 16.79 0 32.54 3.581 43.183 10.121 18.475 10.96 23.308 28.093 27.619 43.318l1.998 7.81c0 0 17.882 72.507 20.92 81.94 0.116 0.525 0.163 0.799 0.32 1.050zM347.629 535.552c-4.311 0-12.189-1.050-19.265-4.533-2.568-1.324-4.996-2.852-7.558-4.375l2.312 8.383-1.267 1.412c-15.006-3.051-18.364-3.459-32.226-5.419l-1.162-0.775c-1.609-13.399-3.039-23.473-9.005-49.81-2.272-9.707-4.63-19.506-6.995-29.19l0.639-1.231c14.204 0.752 18.515 0.752 30.861 0.548l0.999 1.091c1.569 8.067 1.772 9.957 5.246 26.296 1.632 7.747 5.037 24.768 6.716 30.829 3.085 1.435 6.129 2.847 9.034 2.847 6.919 0 6.077-6.061 5.81-8.476-0.296-4.054-2.818-17.296-5.403-28.665l-1.725-7.338c-1.202-5.419-2.521-10.687-3.724-16.059l0.523-1.073c14.001 0.752 18.271 0.752 30.227 0.548l1.406 1.091c2.161 12.6 2.794 15.971 6.628 34.317l1.929 8.429c3.747 16.497 5.629 24.862 2.794 31.675-2.998 7.635-10.19 9.479-16.796 9.479zM415.598 518.28c-7.444-1.435-12.19-2.392-16.908-3.010-4.675-0.752-9.237-1.435-16.429-2.438l-0.569-0.519-0.523-0.414c-0.749-5.378-1.272-10.027-2.266-15.493-0.842-5.652-2.138-12.075-4.247-21.303-1.632-7.064-2.475-9.526-3.404-12.011-0.906-2.485-1.905-4.9-3.741-11.847l0.43-0.642 0.36-0.589c6.722 0.321 11.119 0.549 15.639 0.589 4.514 0.163 9.191 0 16.428-0.041l0.634 0.519 0.681 0.571c1.044 6.265 1.201 7.951 1.839 11.007 0.634 3.278 1.725 7.817 4.407 19.938 1.264 5.693 2.678 11.369 3.99 17.179 1.367 5.787 2.792 11.486 4.155 17.179l-0.205 0.688-0.272 0.636zM415.756 541.567c-6.762 4.007-18.633 2.736-26.62-2.8-7.965-5.425-8.871-13.125-2.132-17.185 6.646-3.897 18.563-2.736 26.479 2.846 7.948 5.542 8.94 13.172 2.272 17.138zM456.653 448.758c13.682 0 27.707 3.786 38.262 15.021 8.121 9.111 11.847 22.668 13.135 28.25 4.202 18.503 0.929 27.142-3.178 32.404-6.239 8.021-17.266 10.593-28.704 10.593-6.88 0-23.264-0.683-36.061-12.53-9.192-8.546-13.438-20.142-16.002-31.26-2.584-11.328-5.557-31.721 13.119-39.31 5.762-2.485 14.072-3.167 19.428-3.167zM455.582 490.389c3.155 14.011 6.88 25.771 16.384 25.771 7.448 0 7.987-8.75 4.679-22.808-0.595-3.121-3.312-14.723-6.991-19.664-2.568-3.645-5.604-5.856-8.964-5.856-1 0-6.944 0-7.034 8.861-0.047 4.375 0.843 8.843 1.926 13.696zM542.251 450.56l1.067 1.091c1.516 8.068 1.768 9.963 5.124 26.296 1.682 7.747 5.155 24.768 6.786 30.829 3.092 1.441 6.085 2.852 9.082 2.852 6.873 0 6.034-6.061 5.762-8.476-0.248-4.060-2.769-17.295-5.404-28.665l-1.631-7.338c-1.248-5.425-2.611-10.687-3.812-16.065l0.524-1.074c14.048 0.753 18.156 0.753 30.18 0.549l1.453 1.091c2.107 12.606 2.678 15.977 6.628 34.317l1.883 8.435c3.765 16.496 5.671 24.855 2.879 31.668-3.084 7.636-10.323 9.479-16.833 9.479-4.317 0-12.237-1.044-19.271-4.532-2.517-1.324-5.037-2.847-7.515-4.375l2.158 8.382-1.158 1.417c-15.002-3.057-18.428-3.465-32.272-5.425l-1.063-0.776c-1.678-13.399-3.044-23.467-9.011-49.81-2.272-9.706-4.628-19.506-6.987-29.19l0.63-1.231c14.23 0.753 18.475 0.753 30.799 0.549zM645.463 450.014c0.882 4.328 6.128 29.983 6.176 29.983 0 0 4.466 18.824 4.738 19.506 0 0 1.406 1.96 2.812 2.736h2.072c19.511 0 41.547 0 58.821 12.757 11.752 8.75 19.787 21.67 23.371 37.373 0.929 3.85 1.615 8.429 1.615 13.008 0 6.014-1.201 11.964-4.675 16.613-8.806 12.372-26.348 12.6-46.592 12.693-0.067 0-9.984-0.093-9.984-0.093-25.915-0.321-36.309-0.228-40.578 0.297-0.362-1.896-1.040-5.267-1.040-5.267s-9.283-43.201-9.283-43.271c0 0-22.217-91.85-23.264-96.178 22.63 0.274 31.905 0.274 35.812-0.158zM662.666 526.756c0 0 9.87 43.113 9.823 42.95l0.319 2.211 0.138 1.686 3.946-0.408c0 0 20.358-1.756 20.834-1.802 8.034-3.121 11.347-11.165 9.031-21.665-2.107-9.596-8.306-17.663-16.27-21.56-6.561-3.302-14.596-3.576-22.875-3.576h-5.356l0.41 2.164zM724.122 489.591c-2.611-11.165-5.608-31.558 12.977-38.826 5.927-2.532 11.236-3.284 16.632-3.010 5.699 0.309 10.98 3.179 15.872 7.309-0.441-1.697-0.882-3.395-1.323-5.098l0.843-1.091c13.367 0.566 17.514 0.566 32 0.455l1.312 1.004c2.115 12.483 4.108 24.605 9.602 48.486 2.678 11.439 5.352 22.767 8.101 34.159l-0.433 1.254c-14.95-2.783-18.948-3.378-33.335-5.425l-1.091-0.893c-0.146-1.161-0.295-2.275-0.437-3.389-2.237 3.629-5.478 6.726-10.48 8.657-6.396 2.526-21.417-0.729-34.336-12.536-9.074-8.429-13.43-19.979-15.904-31.056zM755.527 488.908c3.202 13.761 6.88 25.403 16.408 25.403 6.022 0 9.196-5.582 8.55-15.102-0.512-2.374-1.063-4.877-1.721-7.706-0.949-4.089-1.985-8.143-2.989-12.203-1.024-2.777-2.213-5.396-3.521-7.14-2.454-3.488-8.287-5.652-11.642-5.652-0.953 0-6.833 0-7.038 8.703-0.043 4.334 0.843 8.796 1.953 13.696zM919.536 534.344l-1.158 1.324c-14.797-3.010-17.475-3.488-31.071-5.331l-0.996-1.004c-0.047-0.163-0.087-0.414-0.158-0.642l-0.047 0.227c-10.122-23.444-9.823-18.386-18.062-36.842-0.047 0.84-0.047 1.365-0.095 2.257l-2.060 40.010-1.296 1.324c-15.502-3.010-15.868-3.488-30.18-5.331l-1.119-1.004c-0.154-0.478-0.154-1.003-0.248-1.575l0.095-0.204c1.788-9.182 1.359-7.134 3.155-21.624 0.835-7.111 1.95-14.262 2.788-21.286 1.41-11.754 2.202-17.54 3.927-35.478-9.669-16.018-11.957-22.079-21.264-36.137l0.063-0.14-6.554-10.407c-0.748-1.096-1.43-1.849-2.383-2.17-1.044-0.519-2.402-0.613-4.293-0.613h-3.631l-5.396-18.025 18.515-0.319c10.87 0.043 17.703 5.148 21.382 12.009l11.642 20.031h-0.189l1.229 1.412c7.83 16.928 67.403 119.535 67.403 119.535zM724.122 297.618h-7.857l29.074 96.545h9.641l3.064 9.946 0.295-11.060c-0.362-6.835 4.994-12.896 19.066-11.892h16.274l5.6 18.588h-6.124c-3.521 0-5.152 0.893-4.951 2.806l-0.295 11.252h-30.133v-0.058c-9.744-0.204-38.837-0.939-44.729-2.514-7.129-1.843-14.639-7.268-14.639-7.268l2.95 9.957h-28.188l-5.872-19.757-29.464-98.022h-5.715l-5.608-18.456h56.147l-1.883-6.156h27.664l1.835 6.156h7.763l6.085 19.933zM701.086 374.544c-4.513-1.252-12.914-5.057-12.914-5.057l7.471 24.676h22.394l-5.404-17.976c0 0-6.92-0.41-11.548-1.642zM701.515 339.295c0 0-7.034-0.886-11.666-1.938-4.561-1.386-13.111-5.762-13.111-5.762l7.715 25.679h22.512l-5.451-17.979zM688.967 297.389h-22.465l6.51 21.669h22.398l-6.443-21.669zM743.070 357.274h32.382l-4.655-15.132h-32.811l-4.927-16.542h28.711l-21.74-30.736c-1.52-2.261-2.887-3.056-4.403-3.694-1.52-0.776-3.521-1.686-5.833-1.686h-7.964l-5.474-18.117h20.834c10.827 0 17.227 4.947 21.949 11.437l14.907 20.488 3.202-20.803c0.677-3.895 3.466-6.176 5.356-7.062 2.083-1.052 4.242-2.855 7.286-3.123 3.265-0.138 5.62-0.248 7.192-0.248h10.236l6.144 20.275h-4.037c-2.316 0-6.309 0.39-6.987 1.119-0.681 0.886-0.681 2.253-1.048 4.328l-3.245 20.85h-13.3l5.833 6.971h32.748l5.037 16.542h-30.318l4.722 15.132h30.228l5.604 18.66h-90.116l-5.514-18.66zM469.563 293.175l7.558 25.246h31.063l5.675 18.779h-31.090l4.746 15.541h30.385l5.628 18.18h-76.024l-5.514-18.18h17.27l-4.604-15.541h-17.321l-5.738-19.098h17.266l-10.075-33.402c-1.359-4.423 0.638-6.109 1.906-8.16 1.296-2.001 2.607-3.324 5.561-4.076 3.044-0.681 5.128-1.091 7.964-1.091h35.021l6.239 20.799-15.521-2.139c-2.997 0-11.299 0.362-10.394 3.143zM473.123 414.034l-7.869-14.286c-1.686-3.121-3.202-5.057-4.569-5.95-1.201-0.753-3.584-1.068-7.034-1.068h-4.108l-5.49-18.277h13.643c6.558 0 11.595 2.418 14.001 3.623 2.584 1.39 3.265 0.595 5.262 2.532l4.608 4.009h42.594l5.652 19.026h-31.177l5.443 10.389h-30.956zM536.013 292.809c-0.729 1.052-0.205 2.899 0.906 6.751l11.642 38.691h41.417c6.034 0.087 10.394 0.158 13.225 0.362 3.044 0.319 6.357 1.41 9.964 3.371 3.726 2.052 5.632 4.214 7.239 6.699 1.796 2.481 4.679 7.904 7.152 16.27l14.635 48.965-42.98-0.251c0 0-13.233-1.96-19.062-4.124-5.876-2.415-14.277-9.158-14.277-9.158l3.879 13.422h-26.549l-37.171-123.776c-1.319-4.805-2.202-8.294-2.406-10.39-0.067-2.257 2.836-4.49 4.718-6.176 2.225-1.686 5.514-1.414 8.669-1.686 3.316-0.252 8.034-0.41 14.549-0.41h20.401l6.262 21.232-18.263-1.733c-1.953 0-3.363 1.052-3.95 1.938zM556.071 364.383h43.504l-2.769-8.704c-0.386-0.205-1.315 0.433-5.742-0.091h-37.671l2.678 8.795zM564.787 393.572h43.867l-3.155-10.482c0 0-20.677 0.205-23.989-0.41-14.568-2.532-23.079-10.346-23.079-10.346l6.357 21.238zM597.784 326.534c-0.362-1.3-0.929-2.091-1.725-2.69-0.886-0.571-2.316-0.776-4.447-0.776h-6.199l0.366 10.602h-25.781l-1.048-51.818c-0.039-3.738 0.319-5.904 3.044-7.637 2.725-2.162 11.118-2.438 22.418-2.438h16.16l5.833 19.397-18.743-1.052c-0.638 0.276-1.248 0.528-1.93 1.209-0.591 0.587-1.591 0.228-1.43 3.966l0.11 13.28 14.753 0.614c7.964 0 11.366 2.603 14.273 5.081 2.773 2.375 3.679 5.104 4.722 8.795l2.477 11.76h-20.271l-2.584-8.294z" />
<glyph unicode="&#xe923;" glyph-name="windows" d="M533.858 770.265c-5.814-0.963-10.077-5.992-10.077-11.885v-266.638c0-6.654 5.393-12.047 12.047-12.047h357.908c6.65 0 12.047 5.393 12.047 12.047v325.946c0 7.44-6.68 13.101-14.017 11.885l-357.908-59.308zM523.78 136.638c0-5.903 4.282-10.939 10.111-11.89l357.904-58.278c7.331-1.193 13.987 4.463 13.987 11.89v325.787c0 6.654-5.397 12.047-12.047 12.047h-357.908c-6.654 0-12.047-5.393-12.047-12.047v-267.51zM120.081 491.842c0-6.654 5.393-12.047 12.047-12.047h298.806c6.653 0 12.047 5.393 12.047 12.047v252.046c0 7.44-6.677 13.101-14.017 11.885l-298.805-49.508c-5.815-0.963-10.078-5.992-10.078-11.885v-202.538zM120.081 199.638c0-5.909 4.281-10.939 10.11-11.89l298.806-48.676c7.33-1.193 13.984 4.463 13.984 11.89v253.186c0 6.654-5.394 12.047-12.047 12.047h-298.806c-6.654 0-12.047-5.393-12.047-12.047v-204.51z" />
</font>
</defs>
</svg>
